PathFileType	4	(X/Y/Z)	s02c0001.trc
DataRate	CameraRate	NumFrames	NumMarkers	Units	OrigDataRate	OrigDataStartFrame	OrigNumFrames
200	200	4	49	mm	200	0	2000
Frame#	Time	racr			lacr			c7			jug			rlel			rdr			llel			ldr			s2			lic			ric			lasi			rasi			rpsi			lpsi			rgt			lgt			rth1			rth2			rth3			rth4			rlfc			rmfc			rsh1			rsh2			rsh3			rsh4			rlmal			rmmal			rcal			rtoe			rmt5			rmt1			lth1			lth2			lth4			lth3			llfc			lmfc			lsh1			lsh2			lsh3			lsh4			llmal			lmmal			lcal			ltoe			lmt1			lmt5			
		X1	Y1	Z1	X2	Y2	Z2	X3	Y3	Z3	X4	Y4	Z4	X5	Y5	Z5	X6	Y6	Z6	X7	Y7	Z7	X8	Y8	Z8	X9	Y9	Z9	X10	Y10	Z10	X11	Y11	Z11	X12	Y12	Z12	X13	Y13	Z13	X14	Y14	Z14	X15	Y15	Z15	X16	Y16	Z16	X17	Y17	Z17	X18	Y18	Z18	X19	Y19	Z19	X20	Y20	Z20	X21	Y21	Z21	X22	Y22	Z22	X23	Y23	Z23	X24	Y24	Z24	X25	Y25	Z25	X26	Y26	Z26	X27	Y27	Z27	X28	Y28	Z28	X29	Y29	Z29	X30	Y30	Z30	X31	Y31	Z31	X32	Y32	Z32	X33	Y33	Z33	X34	Y34	Z34	X35	Y35	Z35	X36	Y36	Z36	X37	Y37	Z37	X38	Y38	Z38	X39	Y39	Z39	X40	Y40	Z40	X41	Y41	Z41	X42	Y42	Z42	X43	Y43	Z43	X44	Y44	Z44	X45	Y45	Z45	X46	Y46	Z46	X47	Y47	Z47	X48	Y48	Z48	X49	Y49	Z49	
0	0.0000	560.613464	1430.737671	565.228210	586.602234	1422.521240	162.127365	539.131409	1479.735229	357.944794	643.258484	1382.587158	365.817810	530.288086	1145.284302	635.882202	624.308289	1020.030945	779.385559	561.049438	1114.041748	128.785217	734.810608	1039.190063	23.457088	471.681854	973.857239	364.993347	631.349182	1017.914429	230.405594	597.520508	1020.683594	515.197754	677.738281	969.190125	262.041107	647.255798	971.350220	495.153961	481.483215	999.914307	409.935791	493.656494	995.951721	325.113037	547.955078	886.440796	539.524414	564.659424	886.365112	206.093796	583.727600	802.169678	552.730164	602.088196	714.664062	549.999023	576.565674	632.972778	559.304749	635.639648	712.628723	531.924072	557.238281	499.080475	515.885193	561.020752	484.276031	412.076599	528.478882	397.939178	533.724182	542.282410	310.633484	517.426025	513.680176	229.639465	514.129395	563.193054	313.567810	484.489227	502.651733	100.892616	499.769531	514.986694	114.260445	421.516754	451.077057	53.347145	443.019592	726.851807	86.360695	498.513123	615.487854	48.084728	537.580444	656.942078	71.318192	435.755524	594.074890	760.151001	188.769394	604.833435	673.514893	194.036026	638.289307	671.492065	211.253098	568.585876	592.465637	203.634338	561.136353	495.020508	224.774261	558.312439	468.502106	322.469940	536.176331	398.909454	199.918518	554.513550	315.368500	215.378464	527.996277	228.870819	214.589890	573.741150	317.549347	250.277130	518.816833	113.791100	231.334045	541.532532	118.190346	309.755981	468.624176	58.128445	277.749115	750.618652	82.509026	249.478500	673.799011	70.090439	302.584808	646.369812	46.385597	195.979172	
1	0.0050	560.657227	1430.739746	565.240967	586.622681	1422.522583	162.101974	539.163574	1479.748901	357.950684	643.259399	1382.574341	365.801147	530.292480	1145.268433	635.863586	624.310181	1020.005188	779.354980	561.045959	1114.034424	128.785385	734.811218	1039.181519	23.451385	471.685150	973.849854	364.980255	631.372742	1017.902405	230.410431	597.518982	1020.677246	515.197510	677.754211	969.192505	262.025970	647.239868	971.346680	495.141205	481.477112	999.907166	409.934235	493.653076	995.945435	325.085785	547.965027	886.429810	539.482788	564.668640	886.360413	206.072601	583.744385	802.158264	552.726074	602.088135	714.672424	549.987000	576.559204	632.975891	559.307434	635.661011	712.633728	531.906616	557.251526	499.085144	515.886169	561.077942	484.285889	412.063080	528.482361	397.914642	533.711548	542.293335	310.616547	517.441650	513.671509	229.639694	514.145386	563.196289	313.573364	484.470245	502.670715	100.887947	499.770203	514.997925	114.260315	421.518402	451.062805	53.361244	443.018066	726.851135	86.362244	498.523163	615.488647	48.063084	537.588074	656.954285	71.287537	435.775604	594.089233	760.145081	188.758713	604.845703	673.522766	194.034363	638.294983	671.492493	211.237640	568.599854	592.458862	203.623352	561.134766	495.007416	224.758057	558.317383	468.499390	322.466766	536.171997	398.897003	199.927032	554.491394	315.358154	215.354019	528.015442	228.860550	214.583939	573.743896	317.545135	250.280151	518.817322	113.784508	231.329453	541.533264	118.182564	309.748077	468.625122	58.114487	277.750488	750.644897	82.520874	249.468506	673.802795	70.114655	302.585785	646.337341	46.382332	195.980972	
2	0.0100	560.655396	1430.736084	565.221375	586.630066	1422.522705	162.104187	539.180115	1479.735107	357.936310	643.291443	1382.575317	365.820618	530.296326	1145.257446	635.835571	624.295898	1020.004883	779.349976	561.044678	1114.027222	128.789139	734.800537	1039.169312	23.421473	471.709106	973.856201	364.975769	631.365723	1017.903259	230.392197	597.529968	1020.676514	515.192566	677.749939	969.200134	262.015991	647.263428	971.355225	495.153259	481.493011	999.934021	409.927277	493.684387	995.953979	325.083710	547.973999	886.434082	539.516602	564.682861	886.362488	206.079926	583.745422	802.161804	552.723206	602.102295	714.665283	549.980896	576.560547	632.977539	559.303772	635.655701	712.629211	531.886963	557.257812	499.083710	515.883240	561.072571	484.288849	412.060760	528.481506	397.952393	533.710571	542.288147	310.631348	517.410767	513.661438	229.631058	514.126160	562.967163	313.360168	484.022949	502.650543	100.902435	499.766144	514.991882	114.258202	421.534363	451.059021	53.347210	443.026062	726.844482	86.361641	498.509979	615.526550	48.082687	537.575989	656.939941	71.319710	435.763855	594.089905	760.146606	188.753601	604.847778	673.511169	194.024490	638.297607	671.503906	211.247635	568.596130	592.454224	203.619370	561.135254	495.008453	224.754730	558.319397	468.505676	322.463806	536.174988	398.915375	199.918076	554.492737	315.366852	215.350998	528.002808	228.865799	214.585968	573.744934	317.549072	250.270752	518.846619	113.789017	231.334106	541.533447	118.189270	309.749451	468.623901	58.112152	277.761841	750.637634	82.488121	249.485138	673.790710	70.100578	302.587494	646.346924	46.370823	195.970215	
3	0.0150	561.150452	1430.768433	565.384888	586.653381	1422.514893	162.097397	539.196838	1479.964355	357.770813	643.311707	1382.568604	365.800293	530.301514	1145.250000	635.827087	624.291199	1019.978516	779.319519	560.952637	1113.916626	128.804794	734.786621	1039.157593	23.431284	471.742645	973.847046	364.967529	630.749756	1018.264465	230.021698	597.858643	1020.532043	515.188293	677.475220	969.110718	261.781555	646.764160	971.668396	495.495789	481.504639	999.937927	409.938293	493.742706	995.735168	324.985748	547.924133	886.631348	540.161682	564.680847	886.368286	206.067673	583.755554	802.154419	552.714783	602.114624	714.656860	549.973694	576.554382	632.990662	559.302795	635.443542	712.542358	531.771118	557.257507	499.088379	515.866150	561.045532	484.258453	412.036072	528.484802	397.939270	533.693298	542.960510	311.180176	517.936890	513.665344	229.644577	514.136047	563.441467	313.484314	484.425079	502.675354	100.899521	499.757233	515.776855	113.941559	421.238678	451.054230	53.364613	443.009827	726.848206	86.365562	498.521545	615.480469	48.051598	537.608154	656.934448	71.312210	435.777069	594.104126	760.148010	188.760086	604.652100	672.788147	194.785980	638.294739	670.358459	211.519043	568.613098	592.462097	203.627274	561.599548	494.573608	224.459656	558.329346	468.496460	322.463531	536.168152	398.910065	199.923218	554.491394	315.352722	215.356964	528.772034	228.613876	214.551376	573.762634	317.557129	250.264114	518.835388	113.789429	231.320358	541.252991	118.539490	309.896790	468.629303	58.126987	277.751953	751.009460	82.179482	249.227295	673.804016	70.100639	302.589996	646.398682	46.374020	195.964203	
